PathFileType	4	(X/Y/Z)	G:\マイドライブ\biomec\experimentalData\240725\SJ2.trc
DataRate	CameraRate	NumFrames	NumMarkers	Units	OrigDataRate	OrigDataStartFrame	OrigNumFrames
200.00	200.00	      4	52	mm	200.00	1620	      1851
Frame#	Time	handR			wrRI			wrRO			elbRI			elbRO			shRF			shRU			shRB			handL			wrLI			wrLO			elbLI			elbLO			shLF			shLU			shLB			toeR			baRI			baRO			heelR			anRI			anRO			knRI			knRO			troR			toeL			baLI			baLO			heelL			anLI			anLO			knLI			knLO			troL			head			earR			earL			clav			c7			ribR			ribL			xiph			ASISR			ASISL			PSISR			PSISL			t8			t11			L1			L3			LS			COX			
		X1	Y1	Z1	X2	Y2	Z2	X3	Y3	Z3	X4	Y4	Z4	X5	Y5	Z5	X6	Y6	Z6	X7	Y7	Z7	X8	Y8	Z8	X9	Y9	Z9	X10	Y10	Z10	X11	Y11	Z11	X12	Y12	Z12	X13	Y13	Z13	X14	Y14	Z14	X15	Y15	Z15	X16	Y16	Z16	X17	Y17	Z17	X18	Y18	Z18	X19	Y19	Z19	X20	Y20	Z20	X21	Y21	Z21	X22	Y22	Z22	X23	Y23	Z23	X24	Y24	Z24	X25	Y25	Z25	X26	Y26	Z26	X27	Y27	Z27	X28	Y28	Z28	X29	Y29	Z29	X30	Y30	Z30	X31	Y31	Z31	X32	Y32	Z32	X33	Y33	Z33	X34	Y34	Z34	X35	Y35	Z35	X36	Y36	Z36	X37	Y37	Z37	X38	Y38	Z38	X39	Y39	Z39	X40	Y40	Z40	X41	Y41	Z41	X42	Y42	Z42	X43	Y43	Z43	X44	Y44	Z44	X45	Y45	Z45	X46	Y46	Z46	X47	Y47	Z47	X48	Y48	Z48	X49	Y49	Z49	X50	Y50	Z50	X51	Y51	Z51	X52	Y52	Z52	

1620	8.095	302.72299	1406.11279	1044.68274	238.63892	1433.51208	1015.31812	276.63290	1485.94238	1048.60938	135.45903	1581.00500	1186.76721	89.26842	1516.04321	1195.98303	289.32474	1386.98828	1398.46558	257.86938	1493.71521	1406.92798	255.81137	1435.77319	1434.23340	587.94141	1398.37085	1053.44702	658.56183	1433.39075	1024.13147	611.48450	1473.69763	1069.24878	767.19080	1576.08386	1185.28052	818.51984	1507.11865	1188.37305	609.22150	1388.33594	1390.18311	645.09607	1436.40710	1424.44702	629.12085	1502.92932	1387.77576	271.53308	1389.96228	47.29667	320.04184	1471.52820	37.24974	196.52376	1497.56042	45.22572	292.93417	1676.77222	48.84246	329.32715	1583.59216	120.43269	237.48773	1610.39307	114.33994	357.89008	1540.43237	475.89584	254.28233	1538.95520	486.37918	272.28937	1470.82300	877.01556	625.52399	1378.82922	53.42738	572.65924	1446.25891	54.21632	682.77106	1481.38831	51.94969	605.59210	1663.65747	48.88077	566.95831	1567.83948	136.57771	655.12585	1596.63806	117.76105	534.90021	1519.86060	484.05353	638.99866	1515.41052	496.85474	616.99292	1452.67761	874.89172	461.81223	1437.08167	1696.10901	379.05014	1338.22156	1557.64502	536.88892	1345.94531	1548.52710	451.74847	1364.73083	1380.43945	456.86090	1470.84192	1476.57300	341.43887	1408.79102	1093.79382	552.85406	1401.22168	1092.41467	446.67612	1352.57520	1222.31250	334.52097	1392.98755	959.92621	556.64758	1388.30566	972.28351	390.03937	1560.85486	1005.95013	510.75485	1553.12280	1011.70551	453.84903	1566.00854	1275.71716	451.44397	1559.16016	1144.79749	452.51648	1550.44482	1085.61865	449.83734	1554.10059	1038.83972	452.52457	1568.43799	1001.78961	455.79300	1599.91602	900.37067	
1621	8.100	302.11856	1406.20776	1044.33240	238.21812	1433.62256	1014.89929	275.93619	1486.13379	1048.24695	134.71194	1580.96008	1186.28271	88.76196	1515.82471	1195.43250	288.54297	1387.21411	1398.14392	257.11383	1493.88794	1406.49634	255.30151	1436.07764	1433.73669	587.19434	1398.64966	1053.17786	657.92242	1433.78943	1024.00342	610.91046	1473.99707	1069.05664	766.65002	1576.11279	1184.57886	817.90466	1507.91345	1188.20386	608.62976	1388.77002	1390.03381	644.45404	1437.03430	1424.25061	628.27631	1503.53198	1387.56360	271.52689	1390.00415	47.38448	320.08353	1471.53882	37.21375	196.34952	1498.12305	45.44192	293.10382	1676.84973	48.37413	329.53592	1583.77747	120.11022	237.65741	1610.57739	114.02199	357.69312	1540.79297	475.69507	254.14008	1539.31824	486.07382	271.68701	1471.01355	876.74927	625.52124	1378.85437	53.45295	572.65210	1446.27698	54.23051	682.74652	1481.40625	51.96380	605.56775	1663.71033	48.64970	566.82068	1567.98303	136.33377	654.96796	1596.78833	117.63248	534.45728	1520.33435	483.88586	638.62622	1516.09399	496.69400	616.33795	1453.03796	874.68756	460.78433	1437.82507	1695.89636	378.28421	1338.69250	1557.32715	536.18542	1346.30737	1548.53796	450.96329	1365.00891	1380.31323	456.09335	1471.22729	1476.34692	340.87097	1408.85950	1093.38281	552.22729	1401.43188	1092.13123	446.20215	1352.72034	1222.15527	333.98575	1393.26807	959.57275	556.04962	1388.69995	971.97632	389.41736	1561.03247	1005.61725	510.02173	1553.56958	1011.37683	453.13214	1566.34326	1275.44995	450.85117	1559.39648	1144.58728	451.82855	1550.66077	1085.26904	449.22272	1554.28809	1038.54785	451.94382	1568.69446	1001.48657	455.07401	1600.24646	900.15088	
1622	8.105	301.65094	1406.22754	1044.05505	237.76389	1433.69775	1014.40625	275.33978	1486.14929	1047.90491	134.00555	1581.05090	1185.82617	88.13400	1515.80786	1194.87463	287.83426	1387.50916	1397.87317	256.44858	1494.06335	1406.15491	254.80449	1436.29956	1433.46240	586.53345	1398.98389	1052.90491	657.37805	1434.13696	1023.91052	610.34955	1474.21997	1068.82239	765.67590	1576.77893	1184.52478	817.13434	1508.60327	1187.95471	607.97412	1389.28955	1389.88110	643.81378	1437.55957	1424.10339	627.55566	1503.95117	1387.40308	271.53079	1390.06641	47.45678	320.11902	1471.55896	37.16439	196.61789	1497.68506	45.27520	293.18829	1676.93323	47.93824	329.68915	1584.02991	119.83338	237.78548	1610.79102	113.68272	357.44922	1541.32324	475.40134	253.95364	1539.63928	485.74829	271.12338	1471.22937	876.47058	625.52240	1378.86145	53.46241	572.63318	1446.30750	54.23190	682.65814	1481.40125	51.80575	605.58344	1663.75000	48.41401	566.70990	1568.11926	136.11339	654.80731	1596.90173	117.48325	534.11572	1521.02576	483.63092	638.25220	1516.79016	496.50299	615.50568	1453.65210	874.25598	459.71368	1438.70129	1695.69824	378.13037	1339.82996	1556.75952	535.45874	1346.87488	1548.68884	450.06039	1365.35266	1380.15674	455.25128	1471.71130	1476.03577	340.31229	1408.90979	1093.11475	551.56543	1401.80444	1091.83459	445.66885	1352.91064	1222.02686	333.37222	1393.64722	959.27728	555.49377	1389.02747	971.69208	388.83954	1561.36975	1005.45514	509.47964	1553.76672	1010.94409	452.46884	1566.68848	1275.25720	450.02634	1559.71790	1144.26440	451.08435	1551.00159	1084.96130	448.43073	1554.59570	1038.29736	451.32767	1569.01929	1001.22217	454.25452	1600.60828	899.86053	
1623	8.110	301.25974	1406.33948	1043.75220	237.39223	1433.71594	1013.91711	275.08926	1485.17993	1047.16492	133.33084	1581.05994	1185.38049	87.57597	1515.93396	1194.34546	287.12946	1387.81287	1397.65271	255.61360	1494.39233	1405.73999	253.89690	1436.44714	1433.26758	586.06390	1399.26868	1052.70618	656.76031	1434.59436	1023.80945	609.76080	1474.47864	1068.58374	764.66577	1577.53162	1184.22815	816.05432	1509.42651	1187.64233	607.42877	1389.79980	1389.73010	643.18341	1438.09546	1423.96118	626.85748	1504.40588	1387.23804	271.53204	1390.11926	47.53247	320.15207	1471.56714	37.12118	196.64534	1497.73462	45.28616	293.18381	1677.03516	47.54415	329.82715	1584.30237	119.57106	237.90581	1611.01208	113.36452	357.20200	1541.94141	475.16248	253.72491	1539.89587	485.40189	270.56369	1471.41357	876.19965	625.52612	1378.87793	53.51142	572.62732	1446.32544	54.22350	682.69348	1481.40637	51.79985	605.61096	1663.79285	48.19766	566.63110	1568.26709	135.93083	654.73871	1597.02686	117.38515	533.77118	1521.80237	483.33191	637.91919	1517.29187	496.32617	614.35248	1454.17151	873.63873	458.72675	1439.56580	1695.37830	377.22327	1340.37927	1556.50684	534.68652	1347.50598	1548.81555	449.33490	1365.63953	1379.97949	454.58591	1472.15564	1475.79211	339.81882	1409.05029	1092.85571	550.88715	1402.29590	1091.45422	445.08011	1353.16541	1221.87683	332.75806	1393.76331	959.11487	554.97461	1389.23950	971.41748	388.15497	1561.60962	1005.29102	508.98499	1553.98755	1010.61249	451.79886	1567.05847	1275.05078	449.23285	1560.08704	1143.93799	450.45001	1551.32373	1084.72034	447.69452	1554.95801	1038.13049	450.79514	1569.29431	1000.98456	453.62173	1600.82654	899.65729	
